<?xml version="1.0" encoding="UTF-8" standalone="no"?>
<!-- Created with Inkscape (http://www.inkscape.org/) -->

<svg
   width="256"
   height="256"
   viewBox="0 0 256 256"
   version="1.1"
   id="svg1"
   xml:space="preserve"
   xmlns="http://www.w3.org/2000/svg"
   xmlns:svg="http://www.w3.org/2000/svg"><defs
     id="defs1" /><g
     id="layer1"><circle
       style="fill:#cc0000;fill-opacity:1;stroke:#00cc00;stroke-width:0.311215;stroke-linejoin:round;stroke-dashoffset:272.128;paint-order:markers stroke fill"
       id="circle12241"
       cx="127.99609"
       cy="130.00391"
       r="119.2326" /><path
       id="path12242"
       style="fill:#ffcc00;fill-opacity:1;stroke:#00cc00;stroke-width:0.377953;stroke-linejoin:round;stroke-dashoffset:272.128;paint-order:markers stroke fill"
       d="m 1777.2092,1051.3539 16.3861,37.6869 a 105.37211,105.37211 77.026918 0 1 8.6428,37.5167 l 2.3282,54.4789 a 120.93621,120.93621 96.749193 0 1 -4.5429,38.3871 l -13.2424,46.3484 a 91.069114,91.069114 118.07886 0 1 -18.0195,33.7776 l -49.1169,58.0965 a 145.96984,145.96984 137.8519 0 1 -28.7748,26.044 l -31.7318,21.8156 a 99.826627,99.826627 156.58814 0 1 -35.2627,15.2682 l -75.3443,16.4487 a 206.70627,206.70627 173.0957 0 1 -38.7011,4.6863 l -52.855,1.3779 a 83.332253,83.332253 11.728602 0 1 -37.3244,-7.7489 l -114.0939,-53.0832 a 2.1445274,2.1445274 121.20136 0 0 -2.2087,3.6469 l 81.7105,62.5902 a 90.591716,90.591716 25.256611 0 0 34.6158,16.3308 l 61.8548,14.3498 a 108.67829,108.67829 2.8484231 0 0 38.4903,1.9151 l 78.7661,-10.18 a 117.8278,117.8278 163.20123 0 0 36.9802,-11.1641 l 75.2734,-37.0934 a 90.481164,90.481164 141.55678 0 0 29.9759,-23.7955 l 47.9739,-58.5149 a 97.939458,97.939458 118.04181 0 0 18.0517,-33.8908 l 23.1258,-76.9027 a 104.50845,104.50845 96.125688 0 0 4.1071,-38.269 l -6.5392,-83.3601 a 51.905403,51.905403 64.847686 0 0 -15.5723,-33.1644 l -28.7185,-27.9088 a 3.8625888,3.8625888 145.34081 0 0 -6.2342,4.3102 z m -508.9755,33.6103 11.142,-26.3384 a 89.213131,89.213131 125.30825 0 1 22.1064,-31.2125 l 24.6452,-22.436 c 7.9961,-7.27933 20.3352,-6.65833 27.5085,1.433 29.9135,33.742 102.7629,117.0733 126.6138,154.8655 5.6771,8.9954 -1.1701,19.0505 -11.3157,16.5857 -43.0421,-10.457 -147.7893,-50.9927 -190.1262,-67.6532 -10.0621,-3.9597 -14.7869,-15.2853 -10.574,-25.2441 z m 12.8458,186.4207 c 42.8097,-12.0207 146.5408,-42.3023 184.9951,-63.8436 9.2498,-5.1815 8.818,-19.4065 -0.675,-23.6595 -38.6348,-17.3091 -140.2528,-44.322 -182.622,-55.2521 -10.4703,-2.701 -22.9546,2.9766 -27.8663,12.61 l -3.014,5.9113 a 90.071683,90.071683 104.75154 0 0 -9.7433,37.0035 l -0.6986,16.0817 a 94.920463,94.920463 80.83286 0 0 6.1098,37.8611 l 7.6822,20.2 c 3.8437,10.107 15.4215,16.0109 25.8321,13.0876 z m 190.2816,-39.6057 c -16.558,36.1253 -61.6522,114.8623 -81.7099,149.4949 -5.4189,9.3565 -17.5313,12.7041 -27.011,7.502 l -31.2726,-17.1614 a 76.455234,76.455234 43.120529 0 1 -27.6888,-25.9294 l -19.7482,-30.9798 c -5.8124,-9.1183 -2.6143,-20.2882 7.1665,-24.8994 38.2112,-18.0147 128.1756,-59.8356 167.4957,-73.0623 10.0026,-3.3648 17.2209,5.3209 12.7683,15.0354 z m 8.6575,2.7736 c -21.6105,34.7775 -64.554,121.4693 -82.8431,158.8414 -4.7527,9.7117 -0.7295,21.5222 8.9421,26.3581 l 12.9758,6.4878 a 86.805421,86.805421 13.854549 0 0 37.0874,9.147 l 40.8493,0.8158 c 10.8112,0.2159 19.0323,-8.3582 18.3072,-19.1471 -2.7933,-41.5596 -9.8225,-138.2424 -17.2587,-178.8656 -1.9202,-10.4897 -12.4819,-12.6141 -18.06,-3.6374 z m 44.5053,5.0701 c 22.1818,32.2434 60.0812,116.9732 76.3218,154.1967 4.3241,9.9109 -0.7873,19.9217 -11.3307,22.3224 l -42.6198,9.7046 c -10.5434,2.4007 -20.3487,-4.3283 -21.8336,-15.0391 -5.3999,-38.9496 -16.92,-126.2735 -17.29,-164.8942 -0.1012,-10.5634 10.8689,-14.8425 16.7523,-6.2904 z m 15.8561,-27.383 c 38.7679,19.5158 128.1676,79.5615 164.861,104.509 8.9421,6.0797 12.3067,18.9171 7.5469,28.6264 l -2.7632,5.6364 a 66.269818,66.269818 132.57515 0 1 -25.4071,27.6541 l -30.4226,18.2547 a 27.383232,27.383232 177.53627 0 1 -29.5895,1.2731 c -32.2946,-52.083 -82.731,-135.0341 -98.3475,-172.8972 -4.0303,-9.7714 4.7332,-17.7828 14.122,-13.0565 z m 226.3594,-47.1199 c -46.5195,5.1445 -163.647,18.5187 -209.0003,27.6078 -10.4253,2.0893 -13.1713,13.1068 -4.4972,19.254 34.0703,24.1448 121.9624,70.0243 159.5239,89.3141 9.6188,4.9397 24.0732,3.1633 32.254,-3.9078 l 17.5738,-15.1901 a 63.375198,63.375198 121.99328 0 0 19.8225,-31.7308 l 11.5779,-43.7429 a 50.838836,50.838836 83.762433 0 0 -3.9703,-36.3257 c -2.1102,-4.0884 -12.5366,-6.4672 -23.2843,-5.2786 z m -71.7642,-189.62389 36.8582,22.19922 a 57.52984,57.52984 49.854967 0 1 23.9002,28.33707 l 20.1421,51.529 a 77.864752,77.864752 82.764441 0 1 4.7831,37.6737 l -0.9075,7.5221 c -1.2951,10.7354 -10.9159,21.2768 -21.4935,23.5222 -46.4228,9.8546 -164.5672,34.646 -211.1505,41.7169 -10.5674,1.604 -16.5942,-6.9917 -11.1907,-16.2705 25.1316,-43.1558 101.6277,-150.0178 130.8093,-190.47054 6.3258,-8.76898 18.9863,-11.33809 28.2493,-5.75915 z m -190.997,-30.54667 c 2.3395,45.80072 8.4964,159.55496 14.1021,204.72796 1.3169,10.6122 11.6997,14.2561 18.0403,5.8153 27.4914,-36.5977 83.6001,-139.6768 105.6714,-180.82182 5.1115,-9.52869 2.0879,-22.38407 -6.7001,-28.68478 l -10.5744,-7.58156 a 88.366365,88.366365 23.146353 0 0 -35.1537,-15.02794 l -42.3174,-7.96022 a 54.700353,54.700353 170.9592 0 0 -36.4098,5.79332 c -4.2155,2.31129 -7.21,12.94055 -6.6584,23.73974 z m -134.6647,43.76581 c 78.0503,113.20535 112.1534,161.61035 127.3949,181.52725 5.9507,7.7761 14.1971,3.2069 13.4696,-7.5312 -3.1383,-46.3198 -21.2776,-159.0982 -28.7545,-204.4041 -1.7606,-10.6682 -11.0609,-23.23133 -20.7325,-28.06717 l -4.9758,-2.48786 a 40.352012,40.352012 0.68196377 0 0 -35.2277,-0.41932 l -32.5688,15.3265 a 60.723993,60.723993 136.92806 0 0 -27.2249,25.45158 c -1.3756,2.4759 2.4818,11.70188 8.6197,20.60432 z"
       transform="matrix(0.3638288,0,0,0.37866842,-430.76052,-322.16181)" /><path
       id="path12243"
       style="fill:#cc0000;fill-opacity:1;stroke:#ffcc00;stroke-width:30.8206;stroke-linejoin:round;stroke-dasharray:none;stroke-dashoffset:272.128;stroke-opacity:1;paint-order:markers stroke fill"
       transform="matrix(-0.22479141,-0.12978337,0.12978337,-0.22479141,5.5754424,45.717215)"
       d="M -351.50914,60.199126 -751.25966,53.02805 a 6.4158049,6.4158049 61.027712 0 1 -5.38274,-9.721816 l 206.08558,-342.608564 a 6.4158049,6.4158049 1.0277112 0 1 11.11072,0.19932 l 193.66492,349.779634 a 6.4158048,6.4158048 121.02771 0 1 -5.72796,9.522502 z" /></g></svg>
