<?xml version="1.0" encoding="UTF-8" standalone="no"?>
<!-- Created with Inkscape (http://www.inkscape.org/) -->

<svg
   width="256"
   height="256"
   viewBox="0 0 256 256"
   version="1.1"
   id="svg1"
   xml:space="preserve"
   inkscape:version="1.3.2 (091e20ef0f, 2023-11-25, custom)"
   sodipodi:docname="lemon_inkscape.svg"
   inkscape:export-filename="lemon.svg"
   inkscape:export-xdpi="24"
   inkscape:export-ydpi="24"
   xmlns:inkscape="http://www.inkscape.org/namespaces/inkscape"
   xmlns:sodipodi="http://sodipodi.sourceforge.net/DTD/sodipodi-0.dtd"
   xmlns="http://www.w3.org/2000/svg"
   xmlns:svg="http://www.w3.org/2000/svg"><sodipodi:namedview
     id="namedview1"
     pagecolor="#ffffff"
     bordercolor="#000000"
     borderopacity="0.25"
     inkscape:showpageshadow="2"
     inkscape:pageopacity="0.0"
     inkscape:pagecheckerboard="0"
     inkscape:deskcolor="#d1d1d1"
     inkscape:document-units="mm"
     inkscape:zoom="1"
     inkscape:cx="85.5"
     inkscape:cy="55.5"
     inkscape:window-width="2560"
     inkscape:window-height="1378"
     inkscape:window-x="0"
     inkscape:window-y="0"
     inkscape:window-maximized="1"
     inkscape:current-layer="layer1" /><defs
     id="defs1"><inkscape:path-effect
       effect="fillet_chamfer"
       id="path-effect2"
       is_visible="true"
       lpeversion="1"
       nodesatellites_param="F,0,0,1,0,11.1125,0,1 @ F,0,0,1,0,11.1125,0,1 @ F,0,0,1,0,11.1125,0,1"
       radius="42"
       unit="px"
       method="auto"
       mode="F"
       chamfer_steps="1"
       flexible="false"
       use_knot_distance="true"
       apply_no_radius="true"
       apply_with_radius="true"
       only_selected="false"
       hide_knots="false" /><inkscape:path-effect
       effect="fillet_chamfer"
       id="path-effect1"
       is_visible="true"
       lpeversion="1"
       nodesatellites_param="F,0,0,1,0,3.4395833,0,4 @ F,0,0,1,0,3.4395833,0,4 @ F,0,0,1,0,3.4395833,0,4"
       radius="13"
       unit="px"
       method="auto"
       mode="F"
       chamfer_steps="4"
       flexible="false"
       use_knot_distance="true"
       apply_no_radius="true"
       apply_with_radius="true"
       only_selected="false"
       hide_knots="false" /><inkscape:path-effect
       effect="fillet_chamfer"
       id="path-effect12244"
       is_visible="true"
       lpeversion="1"
       nodesatellites_param="F,0,0,1,0,19.579167,0,1 @ F,0,0,1,0,19.579167,0,1 @ F,0,0,1,0,19.579167,0,1 @ F,0,0,1,0,19.579167,0,1 @ F,0,0,1,0,19.579167,0,1 @ F,0,0,1,0,19.579167,0,1 @ F,0,0,1,0,19.579167,0,1 @ F,0,0,1,0,19.579167,0,1 @ F,0,0,1,0,19.579167,0,1 @ F,0,0,1,0,19.579167,0,1 @ F,0,0,1,0,19.579167,0,1 @ F,0,0,1,0,19.579167,0,1 @ F,0,0,1,0,19.579167,0,1 @ F,0,0,1,0,19.579167,0,1 @ F,0,0,1,0,19.579167,0,1 @ F,0,0,1,0,19.579167,0,1 | F,0,0,1,0,19.579167,0,1 @ F,0,0,1,0,19.579167,0,1 @ F,0,0,1,0,19.579167,0,1 @ F,0,0,1,0,19.579167,0,1 | F,0,0,1,0,19.579167,0,1 @ F,0,0,1,0,19.579167,0,1 @ F,0,0,1,0,19.579167,0,1 @ F,0,0,1,0,19.579167,0,1 @ F,0,0,1,0,19.579167,0,1 | F,0,0,1,0,19.579167,0,1 @ F,0,0,1,0,19.579167,0,1 @ F,0,0,1,0,19.579167,0,1 @ F,0,0,1,0,19.579167,0,1 | F,0,0,1,0,19.579167,0,1 @ F,0,0,1,0,19.579167,0,1 @ F,0,0,1,0,19.579167,0,1 @ F,0,0,1,0,19.579167,0,1 | F,0,0,1,0,19.579167,0,1 @ F,0,0,1,0,19.579167,0,1 @ F,0,0,1,0,19.579167,0,1 | F,0,0,1,0,19.579167,0,1 @ F,0,0,1,0,19.579167,0,1 @ F,0,0,1,0,19.579167,0,1 @ F,0,0,1,0,19.579167,0,1 @ F,0,0,1,0,19.579167,0,1 | F,0,0,1,0,19.579167,0,1 @ F,0,0,1,0,19.579167,0,1 @ F,0,0,1,0,19.579167,0,1 @ F,0,0,1,0,19.579167,0,1 @ F,0,0,1,0,19.579167,0,1 | F,0,0,1,0,19.579167,0,1 @ F,0,0,1,0,19.579167,0,1 @ F,0,0,1,0,19.579167,0,1 @ F,0,0,1,0,19.579167,0,1 @ F,0,0,1,0,19.579167,0,1 | F,0,0,1,0,19.579167,0,1 @ F,0,0,1,0,19.579167,0,1 @ F,0,0,1,0,19.579167,0,1 @ F,0,0,1,0,19.579167,0,1 @ F,0,0,1,0,19.579167,0,1 | F,0,0,1,0,19.579167,0,1 @ F,0,0,1,0,19.579167,0,1 @ F,0,0,1,0,19.579167,0,1 @ F,0,0,1,0,19.579167,0,1 @ F,0,0,1,0,19.579167,0,1"
       radius="74"
       unit="px"
       method="auto"
       mode="F"
       chamfer_steps="1"
       flexible="false"
       use_knot_distance="true"
       apply_no_radius="true"
       apply_with_radius="true"
       only_selected="false"
       hide_knots="false" /><inkscape:path-effect
       effect="fillet_chamfer"
       id="path-effect12240"
       is_visible="true"
       lpeversion="1"
       nodesatellites_param="F,0,0,1,0,19.579167,0,1 @ F,0,0,1,0,19.579167,0,1 @ F,0,0,1,0,19.579167,0,1 @ F,0,0,1,0,19.579167,0,1 @ F,0,0,1,0,19.579167,0,1 @ F,0,0,1,0,19.579167,0,1 @ F,0,0,1,0,19.579167,0,1 @ F,0,0,1,0,19.579167,0,1 @ F,0,0,1,0,19.579167,0,1 @ F,0,0,1,0,19.579167,0,1 @ F,0,0,1,0,19.579167,0,1 @ F,0,0,1,0,19.579167,0,1 @ F,0,0,1,0,19.579167,0,1 @ F,0,0,1,0,19.579167,0,1 @ F,0,0,1,0,19.579167,0,1 @ F,0,0,1,0,19.579167,0,1 | F,0,0,1,0,19.579167,0,1 @ F,0,0,1,0,19.579167,0,1 @ F,0,0,1,0,19.579167,0,1 @ F,0,0,1,0,19.579167,0,1 | F,0,0,1,0,19.579167,0,1 @ F,0,0,1,0,19.579167,0,1 @ F,0,0,1,0,19.579167,0,1 @ F,0,0,1,0,19.579167,0,1 @ F,0,0,1,0,19.579167,0,1 | F,0,0,1,0,19.579167,0,1 @ F,0,0,1,0,19.579167,0,1 @ F,0,0,1,0,19.579167,0,1 @ F,0,0,1,0,19.579167,0,1 | F,0,0,1,0,19.579167,0,1 @ F,0,0,1,0,19.579167,0,1 @ F,0,0,1,0,19.579167,0,1 @ F,0,0,1,0,19.579167,0,1 | F,0,0,1,0,19.579167,0,1 @ F,0,0,1,0,19.579167,0,1 @ F,0,0,1,0,19.579167,0,1 | F,0,0,1,0,19.579167,0,1 @ F,0,0,1,0,19.579167,0,1 @ F,0,0,1,0,19.579167,0,1 @ F,0,0,1,0,19.579167,0,1 @ F,0,0,1,0,19.579167,0,1 | F,0,0,1,0,19.579167,0,1 @ F,0,0,1,0,19.579167,0,1 @ F,0,0,1,0,19.579167,0,1 @ F,0,0,1,0,19.579167,0,1 @ F,0,0,1,0,19.579167,0,1 | F,0,0,1,0,19.579167,0,1 @ F,0,0,1,0,19.579167,0,1 @ F,0,0,1,0,19.579167,0,1 @ F,0,0,1,0,19.579167,0,1 @ F,0,0,1,0,19.579167,0,1 | F,0,0,1,0,19.579167,0,1 @ F,0,0,1,0,19.579167,0,1 @ F,0,0,1,0,19.579167,0,1 @ F,0,0,1,0,19.579167,0,1 @ F,0,0,1,0,19.579167,0,1 | F,0,0,1,0,19.579167,0,1 @ F,0,0,1,0,19.579167,0,1 @ F,0,0,1,0,19.579167,0,1 @ F,0,0,1,0,19.579167,0,1 @ F,0,0,1,0,19.579167,0,1"
       radius="74"
       unit="px"
       method="auto"
       mode="F"
       chamfer_steps="1"
       flexible="false"
       use_knot_distance="true"
       apply_no_radius="true"
       apply_with_radius="true"
       only_selected="false"
       hide_knots="false" /><inkscape:path-effect
       effect="bounding_box"
       linkedpath=""
       id="path-effect12239"
       is_visible="true"
       lpeversion="1.3"
       visualbounds="false" /><inkscape:path-effect
       effect="roughen"
       id="path-effect12238"
       is_visible="true"
       lpeversion="1.2"
       global_randomize="0;1"
       displace_x="10;1"
       displace_y="10;1"
       method="size"
       max_segment_size="11.44"
       segments="2"
       handles="along"
       shift_nodes="true"
       fixed_displacement="false"
       spray_tool_friendly="false" /><inkscape:path-effect
       effect="fillet_chamfer"
       id="path-effect12237"
       is_visible="true"
       lpeversion="1"
       nodesatellites_param="IF,0,0,1,0,5.2916667,0,1 @ IF,0,0,1,0,5.2916667,0,1 @ IF,0,0,1,0,5.2916667,0,1 @ IF,0,0,1,0,5.2916667,0,1 @ IF,0,0,1,0,5.2916667,0,1 @ IF,0,0,1,0,5.2916667,0,1 @ IF,0,0,1,0,5.2916667,0,1 @ IF,0,0,1,0,5.2916667,0,1 @ IF,0,0,1,0,5.2916667,0,1 @ IF,0,0,1,0,5.2916667,0,1 @ IF,0,0,1,0,5.2916667,0,1 @ IF,0,0,1,0,5.2916667,0,1 @ IF,0,0,1,0,5.2916667,0,1 @ IF,0,0,1,0,5.2916667,0,1 @ IF,0,0,1,0,5.2916667,0,1 @ IF,0,0,1,0,5.2916667,0,1 | IF,0,0,1,0,5.2916667,0,1 @ IF,0,0,1,0,5.2916667,0,1 @ IF,0,0,1,0,5.2916667,0,1 @ IF,0,0,1,0,5.2916667,0,1 | IF,0,0,1,0,5.2916667,0,1 @ IF,0,0,1,0,0,0,1 @ IF,0,0,1,0,5.2916667,0,1 @ IF,0,0,1,0,5.2916667,0,1 @ IF,0,0,1,0,5.2916667,0,1 | IF,0,0,1,0,5.2916667,0,1 @ IF,0,0,1,0,5.2916667,0,1 @ IF,0,0,1,0,5.2916667,0,1 @ IF,0,0,1,0,5.2916667,0,1 | IF,0,0,1,0,5.2916667,0,1 @ IF,0,0,1,0,5.2916667,0,1 @ IF,0,0,1,0,5.2916667,0,1 @ IF,0,0,1,0,5.2916667,0,1 | IF,0,0,1,0,5.2916667,0,1 @ IF,0,0,1,0,5.2916667,0,1 @ IF,0,0,1,0,5.2916667,0,1 | IF,0,0,1,0,5.2916667,0,1 @ IF,0,0,1,0,5.2916667,0,1 @ IF,0,0,1,0,5.2916667,0,1 @ IF,0,0,1,0,5.2916667,0,1 @ IF,0,0,1,0,5.2916667,0,1 | IF,0,0,1,0,5.2916667,0,1 @ IF,0,0,1,0,5.2916667,0,1 @ IF,0,0,1,0,5.2916667,0,1 @ IF,0,0,1,0,5.2916667,0,1 @ IF,0,0,1,0,5.2916667,0,1 | IF,0,0,1,0,5.2916667,0,1 @ IF,0,0,1,0,5.2916667,0,1 @ IF,0,0,1,0,5.2916667,0,1 @ IF,0,0,1,0,5.2916667,0,1 @ IF,0,0,1,0,5.2916667,0,1 | IF,0,0,1,0,5.2916667,0,1 @ IF,0,0,1,0,5.2916667,0,1 @ IF,0,0,1,0,5.2916667,0,1 @ IF,0,0,1,0,5.2916667,0,1 @ IF,0,0,1,0,5.2916667,0,1 | IF,0,0,1,0,5.2916667,0,1 @ IF,0,0,1,0,5.2916667,0,1 @ IF,0,0,1,0,5.2916667,0,1 @ IF,0,0,1,0,5.2916667,0,1 @ IF,0,0,1,0,5.2916667,0,1"
       radius="20"
       unit="px"
       method="auto"
       mode="IF"
       chamfer_steps="1"
       flexible="false"
       use_knot_distance="true"
       apply_no_radius="true"
       apply_with_radius="true"
       only_selected="false"
       hide_knots="false" /></defs><g
     inkscape:label="Layer 1"
     inkscape:groupmode="layer"
     id="layer1"><circle
       style="fill:#cc0000;fill-opacity:1;stroke:#00cc00;stroke-width:0.311215;stroke-linejoin:round;stroke-dashoffset:272.128;paint-order:markers stroke fill"
       id="circle12241"
       cx="127.99609"
       cy="130.00391"
       r="119.2326" /><path
       id="path12242"
       style="fill:#ffcc00;fill-opacity:1;stroke:#00cc00;stroke-width:0.377953;stroke-linejoin:round;stroke-dashoffset:272.128;paint-order:markers stroke fill"
       d="m 1777.2092,1051.3539 16.3861,37.6869 a 105.37211,105.37211 77.026918 0 1 8.6428,37.5167 l 2.3282,54.4789 a 120.93621,120.93621 96.749193 0 1 -4.5429,38.3871 l -13.2424,46.3484 a 91.069114,91.069114 118.07886 0 1 -18.0195,33.7776 l -49.1169,58.0965 a 145.96984,145.96984 137.8519 0 1 -28.7748,26.044 l -31.7318,21.8156 a 99.826627,99.826627 156.58814 0 1 -35.2627,15.2682 l -75.3443,16.4487 a 206.70627,206.70627 173.0957 0 1 -38.7011,4.6863 l -52.855,1.3779 a 83.332253,83.332253 11.728602 0 1 -37.3244,-7.7489 l -114.0939,-53.0832 a 2.1445274,2.1445274 121.20136 0 0 -2.2087,3.6469 l 81.7105,62.5902 a 90.591716,90.591716 25.256611 0 0 34.6158,16.3308 l 61.8548,14.3498 a 108.67829,108.67829 2.8484231 0 0 38.4903,1.9151 l 78.7661,-10.18 a 117.8278,117.8278 163.20123 0 0 36.9802,-11.1641 l 75.2734,-37.0934 a 90.481164,90.481164 141.55678 0 0 29.9759,-23.7955 l 47.9739,-58.5149 a 97.939458,97.939458 118.04181 0 0 18.0517,-33.8908 l 23.1258,-76.9027 a 104.50845,104.50845 96.125688 0 0 4.1071,-38.269 l -6.5392,-83.3601 a 51.905403,51.905403 64.847686 0 0 -15.5723,-33.1644 l -28.7185,-27.9088 a 3.8625888,3.8625888 145.34081 0 0 -6.2342,4.3102 z m -508.9755,33.6103 11.142,-26.3384 a 89.213131,89.213131 125.30825 0 1 22.1064,-31.2125 l 24.6452,-22.436 c 7.9961,-7.27933 20.3352,-6.65833 27.5085,1.433 29.9135,33.742 102.7629,117.0733 126.6138,154.8655 5.6771,8.9954 -1.1701,19.0505 -11.3157,16.5857 -43.0421,-10.457 -147.7893,-50.9927 -190.1262,-67.6532 -10.0621,-3.9597 -14.7869,-15.2853 -10.574,-25.2441 z m 12.8458,186.4207 c 42.8097,-12.0207 146.5408,-42.3023 184.9951,-63.8436 9.2498,-5.1815 8.818,-19.4065 -0.675,-23.6595 -38.6348,-17.3091 -140.2528,-44.322 -182.622,-55.2521 -10.4703,-2.701 -22.9546,2.9766 -27.8663,12.61 l -3.014,5.9113 a 90.071683,90.071683 104.75154 0 0 -9.7433,37.0035 l -0.6986,16.0817 a 94.920463,94.920463 80.83286 0 0 6.1098,37.8611 l 7.6822,20.2 c 3.8437,10.107 15.4215,16.0109 25.8321,13.0876 z m 190.2816,-39.6057 c -16.558,36.1253 -61.6522,114.8623 -81.7099,149.4949 -5.4189,9.3565 -17.5313,12.7041 -27.011,7.502 l -31.2726,-17.1614 a 76.455234,76.455234 43.120529 0 1 -27.6888,-25.9294 l -19.7482,-30.9798 c -5.8124,-9.1183 -2.6143,-20.2882 7.1665,-24.8994 38.2112,-18.0147 128.1756,-59.8356 167.4957,-73.0623 10.0026,-3.3648 17.2209,5.3209 12.7683,15.0354 z m 8.6575,2.7736 c -21.6105,34.7775 -64.554,121.4693 -82.8431,158.8414 -4.7527,9.7117 -0.7295,21.5222 8.9421,26.3581 l 12.9758,6.4878 a 86.805421,86.805421 13.854549 0 0 37.0874,9.147 l 40.8493,0.8158 c 10.8112,0.2159 19.0323,-8.3582 18.3072,-19.1471 -2.7933,-41.5596 -9.8225,-138.2424 -17.2587,-178.8656 -1.9202,-10.4897 -12.4819,-12.6141 -18.06,-3.6374 z m 44.5053,5.0701 c 22.1818,32.2434 60.0812,116.9732 76.3218,154.1967 4.3241,9.9109 -0.7873,19.9217 -11.3307,22.3224 l -42.6198,9.7046 c -10.5434,2.4007 -20.3487,-4.3283 -21.8336,-15.0391 -5.3999,-38.9496 -16.92,-126.2735 -17.29,-164.8942 -0.1012,-10.5634 10.8689,-14.8425 16.7523,-6.2904 z m 15.8561,-27.383 c 38.7679,19.5158 128.1676,79.5615 164.861,104.509 8.9421,6.0797 12.3067,18.9171 7.5469,28.6264 l -2.7632,5.6364 a 66.269818,66.269818 132.57515 0 1 -25.4071,27.6541 l -30.4226,18.2547 a 27.383232,27.383232 177.53627 0 1 -29.5895,1.2731 c -32.2946,-52.083 -82.731,-135.0341 -98.3475,-172.8972 -4.0303,-9.7714 4.7332,-17.7828 14.122,-13.0565 z m 226.3594,-47.1199 c -46.5195,5.1445 -163.647,18.5187 -209.0003,27.6078 -10.4253,2.0893 -13.1713,13.1068 -4.4972,19.254 34.0703,24.1448 121.9624,70.0243 159.5239,89.3141 9.6188,4.9397 24.0732,3.1633 32.254,-3.9078 l 17.5738,-15.1901 a 63.375198,63.375198 121.99328 0 0 19.8225,-31.7308 l 11.5779,-43.7429 a 50.838836,50.838836 83.762433 0 0 -3.9703,-36.3257 c -2.1102,-4.0884 -12.5366,-6.4672 -23.2843,-5.2786 z m -71.7642,-189.62389 36.8582,22.19922 a 57.52984,57.52984 49.854967 0 1 23.9002,28.33707 l 20.1421,51.529 a 77.864752,77.864752 82.764441 0 1 4.7831,37.6737 l -0.9075,7.5221 c -1.2951,10.7354 -10.9159,21.2768 -21.4935,23.5222 -46.4228,9.8546 -164.5672,34.646 -211.1505,41.7169 -10.5674,1.604 -16.5942,-6.9917 -11.1907,-16.2705 25.1316,-43.1558 101.6277,-150.0178 130.8093,-190.47054 6.3258,-8.76898 18.9863,-11.33809 28.2493,-5.75915 z m -190.997,-30.54667 c 2.3395,45.80072 8.4964,159.55496 14.1021,204.72796 1.3169,10.6122 11.6997,14.2561 18.0403,5.8153 27.4914,-36.5977 83.6001,-139.6768 105.6714,-180.82182 5.1115,-9.52869 2.0879,-22.38407 -6.7001,-28.68478 l -10.5744,-7.58156 a 88.366365,88.366365 23.146353 0 0 -35.1537,-15.02794 l -42.3174,-7.96022 a 54.700353,54.700353 170.9592 0 0 -36.4098,5.79332 c -4.2155,2.31129 -7.21,12.94055 -6.6584,23.73974 z m -134.6647,43.76581 c 78.0503,113.20535 112.1534,161.61035 127.3949,181.52725 5.9507,7.7761 14.1971,3.2069 13.4696,-7.5312 -3.1383,-46.3198 -21.2776,-159.0982 -28.7545,-204.4041 -1.7606,-10.6682 -11.0609,-23.23133 -20.7325,-28.06717 l -4.9758,-2.48786 a 40.352012,40.352012 0.68196377 0 0 -35.2277,-0.41932 l -32.5688,15.3265 a 60.723993,60.723993 136.92806 0 0 -27.2249,25.45158 c -1.3756,2.4759 2.4818,11.70188 8.6197,20.60432 z"
       sodipodi:nodetypes="ccccccccccccccccccccsccsccccscccsscccssccssccccscsccccccccsccscccccscccc"
       inkscape:path-effect="#path-effect12244"
       inkscape:original-d="m 1769.4023,1033.3985 31.9999,73.5977 4,93.6015 -24,84 -74.3983,88.0001 -64,44 -113.6015,24.8007 -92,2.3985 -149.5977,-69.6016 112.7969,86.4024 100,23.1992 117.6015,-15.1992 110.3984,-54.4024 72.8007,-88.7969 34.4024,-114.4023 -9.6016,-122.3985 z m -508.7968,69.5977 26.3984,-62.4024 53.6016,-48.79692 c 0,0 152.6745,169.60592 147.1992,187.19532 -4.162,13.3703 -227.1992,-75.996 -227.1992,-75.996 z m 1.6016,173.6015 c 0,0 212.3433,-57.0571 218.3983,-81.6015 3.9805,-16.1349 -216.8007,-71.1993 -216.8007,-71.1993 l -20.8008,40.7969 -2.3984,55.2031 z m 215.1992,-63.1992 c 5.4089,9.1201 -97.6016,184.7969 -97.6016,184.7969 l -65.6016,-36 -40.7968,-64 c 0,0 198.0557,-94.8197 204,-84.7969 z m 14.7968,6.3985 c -9.1863,-4.348 -103.5976,191.1992 -103.5976,191.1992 l 48,24 79.9999,1.5976 c 0,0 -12.9241,-211.364 -24.4023,-216.7968 z m 18.3985,7.1992 c 16.9259,-6.3115 98.0039,184.7989 98.0039,184.7989 l -80.8008,18.3984 c 0,0 -29.048,-198.7804 -17.2031,-203.1973 z m 11.6035,-20.4043 c 8.0737,-10.4795 199.2012,121.2031 199.2012,121.2031 l -20,40.797 -64,38.4023 -12.8008,-8.8007 c 0,0 -112.517,-178.4707 -102.4004,-191.6017 z m 263.9979,-43.5957 c 0,0 -246.8941,26.338 -246.7987,35.6034 0.1591,15.4495 190.8028,111.5919 190.8028,111.5919 l 47.1992,-40.7969 21.5975,-81.5977 z m -107.9999,-197.60166 70.4024,42.40236 34.3983,88 -5.5975,46.3985 c 0,0 -248.7701,53.4698 -249.6016,47.1992 -1.933,-14.5773 150.3984,-224.00006 150.3984,-224.00006 z m -175.1992,-40 c 0,0 11.5329,241.49606 19.1992,243.20126 15.4888,3.4451 128.8008,-211.20126 128.8008,-211.20126 l -42.3984,-30.39844 -80.8008,-15.19922 z m -144.8008,47.19922 c 148.8008,216.00004 149.6731,213.98104 151.5996,209.60164 6.9663,-15.8364 -31.5996,-243.1993 -31.5996,-243.1993 l -40,-20 -68,32 z"
       transform="matrix(0.3638288,0,0,0.37866842,-430.76052,-322.16181)" /><path
       id="path12243"
       style="fill:#cc0000;stroke:#ffcc00;stroke-width:30.82058775;stroke-linejoin:round;stroke-dashoffset:272.128;paint-order:markers stroke fill;fill-opacity:1;stroke-opacity:1;stroke-dasharray:none"
       inkscape:transform-center-x="-15.318069"
       inkscape:transform-center-y="-0.56720491"
       transform="matrix(-0.22479141,-0.12978337,0.12978337,-0.22479141,5.5754424,45.717215)"
       d="M -351.50914,60.199126 -751.25966,53.02805 a 6.4158049,6.4158049 61.027712 0 1 -5.38274,-9.721816 l 206.08558,-342.608564 a 6.4158049,6.4158049 1.0277112 0 1 11.11072,0.19932 l 193.66492,349.779634 a 6.4158048,6.4158048 121.02771 0 1 -5.72796,9.522502 z"
       inkscape:path-effect="#path-effect2"
       inkscape:original-d="M -340.39843,60.39844 -762.37037,52.828736 -544.82885,-308.82483 Z" /></g></svg>
